<svg width="138" height="130" viewBox="0 0 138 130" fill="none" xmlns="http://www.w3.org/2000/svg">
<path d="M128.441 12.6831C132.085 12.6831 135.043 15.6415 135.043 19.2852C135.043 22.9289 132.085 25.8874 128.441 25.8874C124.797 25.8874 121.839 22.9289 121.839 19.2852C121.839 15.6415 124.797 12.6831 128.441 12.6831Z" fill="#FFA3A3"/>
<path d="M128.441 12.6831C132.085 12.6831 135.043 15.6415 135.043 19.2852C135.043 22.9289 132.085 25.8874 128.441 25.8874C124.797 25.8874 121.839 22.9289 121.839 19.2852C121.839 15.6415 124.797 12.6831 128.441 12.6831Z" stroke="white" stroke-width="4.40142"/>
<path d="M25.0068 97.6304C29.1364 97.6304 32.4892 100.983 32.4892 105.113C32.4892 109.242 29.1364 112.595 25.0068 112.595C20.8773 112.595 17.5244 109.242 17.5244 105.113C17.5244 100.983 20.8773 97.6304 25.0068 97.6304Z" fill="#FFA3A3"/>
<path d="M25.0068 97.6304C29.1364 97.6304 32.4892 100.983 32.4892 105.113C32.4892 109.242 29.1364 112.595 25.0068 112.595C20.8773 112.595 17.5244 109.242 17.5244 105.113C17.5244 100.983 20.8773 97.6304 25.0068 97.6304Z" stroke="white" stroke-width="4.40142"/>
<path d="M26.3276 6.52148C29.2426 6.52148 31.6093 8.88822 31.6093 11.8032C31.6093 14.7182 29.2426 17.0849 26.3276 17.0849C23.4126 17.0849 21.0459 14.7182 21.0459 11.8032C21.0459 8.88822 23.4126 6.52148 26.3276 6.52148Z" fill="#FFA3A3"/>
<path d="M26.3276 6.52148C29.2426 6.52148 31.6093 8.88822 31.6093 11.8032C31.6093 14.7182 29.2426 17.0849 26.3276 17.0849C23.4126 17.0849 21.0459 14.7182 21.0459 11.8032C21.0459 8.88822 23.4126 6.52148 26.3276 6.52148Z" stroke="white" stroke-width="4.40142"/>
<path d="M122.499 94.9897C125.535 94.9897 128.001 97.4551 128.001 100.492C128.001 103.528 125.535 105.993 122.499 105.993C119.462 105.993 116.997 103.528 116.997 100.492C116.997 97.4551 119.462 94.9897 122.499 94.9897Z" fill="#FFA3A3"/>
<path d="M122.499 94.9897C125.535 94.9897 128.001 97.4551 128.001 100.492C128.001 103.528 125.535 105.993 122.499 105.993C119.462 105.993 116.997 103.528 116.997 100.492C116.997 97.4551 119.462 94.9897 122.499 94.9897Z" stroke="white" stroke-width="4.40142"/>
<path d="M63.9597 118.757C66.2674 118.757 68.141 120.631 68.141 122.939C68.141 125.246 66.2674 127.12 63.9597 127.12C61.652 127.12 59.7783 125.246 59.7783 122.939C59.7783 120.631 61.652 118.757 63.9597 118.757Z" fill="#FFA3A3"/>
<path d="M63.9597 118.757C66.2674 118.757 68.141 120.631 68.141 122.939C68.141 125.246 66.2674 127.12 63.9597 127.12C61.652 127.12 59.7783 125.246 59.7783 122.939C59.7783 120.631 61.652 118.757 63.9597 118.757Z" stroke="white" stroke-width="4.40142"/>
<path d="M12.4632 25.8877C14.285 25.8877 15.7642 27.3669 15.7642 29.1888C15.7642 31.0106 14.285 32.4898 12.4632 32.4898C10.6413 32.4898 9.16211 31.0106 9.16211 29.1888C9.16211 27.3669 10.6413 25.8877 12.4632 25.8877Z" fill="#FFA3A3"/>
<path d="M12.4632 25.8877C14.285 25.8877 15.7642 27.3669 15.7642 29.1888C15.7642 31.0106 14.285 32.4898 12.4632 32.4898C10.6413 32.4898 9.16211 31.0106 9.16211 29.1888C9.16211 27.3669 10.6413 25.8877 12.4632 25.8877Z" stroke="white" stroke-width="4.40142"/>
<path d="M106.873 3C109.06 3 110.835 4.77505 110.835 6.96128C110.835 9.1475 109.06 10.9226 106.873 10.9226C104.687 10.9226 102.912 9.1475 102.912 6.96128C102.912 4.77505 104.687 3 106.873 3Z" fill="#FFA3A3"/>
<path d="M106.873 3C109.06 3 110.835 4.77505 110.835 6.96128C110.835 9.1475 109.06 10.9226 106.873 10.9226C104.687 10.9226 102.912 9.1475 102.912 6.96128C102.912 4.77505 104.687 3 106.873 3Z" stroke="white" stroke-width="4.40142"/>
<path d="M5.64085 56.2573C7.09834 56.2573 8.2817 57.4407 8.2817 58.8982C8.2817 60.3557 7.09834 61.539 5.64085 61.539C4.18337 61.539 3 60.3557 3 58.8982C3 57.4407 4.18337 56.2573 5.64085 56.2573Z" fill="#FFA3A3"/>
<path d="M5.64085 56.2573C7.09834 56.2573 8.2817 57.4407 8.2817 58.8982C8.2817 60.3557 7.09834 61.539 5.64085 61.539C4.18337 61.539 3 60.3557 3 58.8982C3 57.4407 4.18337 56.2573 5.64085 56.2573Z" stroke="white" stroke-width="4.40142"/>
<path d="M69.9023 8.78613C98.9121 8.78613 122.466 32.3398 122.466 61.3496C122.466 90.3594 98.9121 113.913 69.9023 113.913C40.8926 113.913 17.3389 90.3594 17.3389 61.3496C17.3389 32.3398 40.8926 8.78613 69.9023 8.78613Z" fill="#FF4D4D"/>
<path d="M91.6281 82.5282C91.6281 82.5282 64.3307 55.2308 51.0078 41.9082" stroke="white" stroke-width="8.05415" stroke-linecap="round" stroke-linejoin="round"/>
<path d="M90.5294 40.873C90.5294 40.873 63.2321 68.1704 49.9092 81.4933" stroke="white" stroke-width="8.05415" stroke-linecap="round" stroke-linejoin="round"/>
</svg>
