<svg width="179" height="183" viewBox="0 0 179 183" fill="none" xmlns="http://www.w3.org/2000/svg">
<g clip-path="url(#clip0_5200_9660)">
<path d="M76.7825 59.3534L75.1904 59.2835C75.2853 57.1118 76.2388 37.9645 80.4298 34.4717C80.696 34.2338 81.0099 34.0556 81.3504 33.9489C81.691 33.8423 82.0503 33.8096 82.4045 33.8532C84.8996 34.2007 87.624 38.1597 90.7339 45.9566C92.9482 51.5079 94.5443 57.043 94.5602 57.0983L93.0287 57.5386C93.0131 57.4839 91.4357 52.0157 89.2501 46.5377C85.3907 36.8655 83.0236 35.5496 82.185 35.4329C82.0504 35.4183 81.9143 35.4345 81.7869 35.4803C81.6595 35.5261 81.5442 35.6002 81.4496 35.6971C78.3572 38.2742 77.0322 53.6471 76.7825 59.3534Z" fill="#0091FF"/>
<path d="M62.7169 49.0219L61.123 89.0156L113.71 83.3474L107.209 44.7344L62.7169 49.0219Z" fill="#FFBA49"/>
<path d="M107.209 44.7344L103.341 45.107L108.489 78.9668L61.3073 84.3993L61.123 89.0156L113.71 83.3474L107.209 44.7344Z" fill="#FFA113"/>
<path d="M135.619 113.505L133.433 113.262C133.451 113.09 135.267 95.9811 129.378 89.5834C128.686 88.8052 127.826 88.1938 126.865 87.7951C125.903 87.3964 124.863 87.2208 123.824 87.2814C110.995 87.6463 104.963 109.677 104.904 109.9L102.778 109.331C103.963 105.217 105.609 101.25 107.684 97.5057C112.154 89.5489 117.713 85.2523 123.761 85.0803C125.116 85.0108 126.468 85.2453 127.72 85.7665C128.972 86.2878 130.092 87.0826 130.997 88.0928C137.564 95.2285 135.702 112.762 135.619 113.505Z" fill="#FFBA49"/>
<path d="M96.595 97.8154L143.015 103.324L142.295 176.984L80.3301 169.599L96.595 97.8154Z" fill="#0091FF"/>
<path d="M143.015 103.323L138.418 102.777L136.179 170.932L81.2028 165.745L80.3301 169.597L142.295 176.982L143.015 103.323Z" fill="#0091FF"/>
<path d="M154.648 126.734C156.763 127.178 158.777 125.487 159.147 122.954C159.542 123.628 159.936 124.302 160.33 124.977C159.96 127.509 157.945 129.201 155.833 128.757C155.439 128.082 155.044 127.408 154.648 126.734Z" fill="#FFBA49"/>
<path d="M92.2158 180.906C94.33 181.349 96.3438 179.657 96.7146 177.125C97.1088 177.799 97.5031 178.473 97.8975 179.148C97.5276 181.68 95.5121 183.372 93.4004 182.929C93.006 182.254 92.6112 181.579 92.2158 180.906Z" fill="#9B9B9B"/>
<path d="M159.369 84.3428C160.256 86.683 162.557 87.723 164.512 86.661C164.27 87.4321 164.028 88.2031 163.785 88.9738C161.83 90.0338 159.528 88.9953 158.643 86.6542C158.886 85.8845 159.128 85.1141 159.369 84.3428Z" fill="#FF5C00"/>
<path d="M145.688 67.7179C146.045 65.1825 144.619 62.7819 142.503 62.3548C143.063 61.877 143.623 61.3994 144.184 60.9219C146.299 61.349 147.725 63.7506 147.369 66.285C146.809 66.7629 146.249 67.2405 145.688 67.7179Z" fill="#021193"/>
<path d="M18.6513 57.486C19.0081 54.9506 17.5825 52.5498 15.4658 52.1228C16.0255 51.645 16.5858 51.1674 17.1466 50.6899C19.2616 51.1169 20.688 53.5186 20.332 56.0531C19.7724 56.5308 19.2121 57.0085 18.6513 57.486Z" fill="#FF5C00"/>
<path d="M61.9413 147.324C62.2982 144.788 60.8724 142.387 58.7559 141.96C59.3156 141.482 59.8758 141.005 60.4365 140.527C62.5515 140.954 63.978 143.356 63.622 145.891C63.0623 146.368 62.5021 146.846 61.9413 147.324Z" fill="#FF5C00"/>
<path d="M172.976 52.3127C175.076 52.8427 177.135 51.2332 177.578 48.7163C177.953 49.4059 178.329 50.096 178.704 50.7866C178.263 53.301 176.202 54.9115 174.103 54.383C173.727 53.6934 173.351 53.0033 172.976 52.3127Z" fill="#FFBA49"/>
<path d="M5.00194 83.4594C4.2492 81.0513 2.01084 79.8302 0.000976562 80.7331C0.285286 79.9844 0.570014 79.2348 0.855161 78.4842C2.86335 77.5823 5.10296 78.8024 5.85612 81.2094C5.57182 81.9591 5.28709 82.7091 5.00194 83.4594Z" fill="#FFBA49"/>
<path d="M57.1645 112.79C57.3128 115.354 59.1687 117.289 61.3089 117.11C60.8575 117.733 60.4054 118.353 59.9549 118.976C57.8139 119.152 55.9588 117.217 55.8105 114.652C56.2619 114.033 56.7132 113.412 57.1645 112.79Z" fill="#0091FF"/>
<path d="M42.0381 66.2006C44.1637 65.8473 45.6472 63.4958 45.3515 60.9492C45.9005 61.4465 46.4488 61.9431 46.9963 62.4392C47.2912 64.9868 45.8085 67.3367 43.683 67.6916C43.1355 67.1942 42.5872 66.6972 42.0381 66.2006Z" fill="#021193"/>
<path d="M128.713 34.9718C125.957 35.0631 127.938 39.9197 125.181 40.0129C124.655 39.4834 124.128 38.9538 123.602 38.4243C126.358 38.3325 124.377 33.476 127.133 33.3828C127.66 33.9123 128.187 34.442 128.713 34.9718Z" fill="#FF5C00"/>
<path d="M133.721 162.619C131.038 161.858 131.907 167.162 129.224 166.401C128.829 165.727 128.434 165.052 128.039 164.378C130.723 165.139 129.853 159.835 132.537 160.596C132.931 161.271 133.326 161.945 133.721 162.619Z" fill="#FFBA49"/>
<path d="M53.9398 169.524C52.0449 171.926 56.3122 173.685 54.4172 176.084C53.7329 176.154 53.0477 176.227 52.3634 176.297C54.2584 173.897 49.991 172.14 51.886 169.739C52.5711 169.669 53.2557 169.597 53.9398 169.524Z" fill="#021193"/>
<path d="M115.321 3.74159C112.623 4.42824 115.301 8.77975 112.604 9.46492C112.007 9.05691 111.408 8.65041 110.812 8.24141C113.509 7.55664 110.829 3.2067 113.528 2.52002C114.126 2.92901 114.723 3.3362 115.321 3.74159Z" fill="#0091FF"/>
<path d="M28.7345 18.0459C30.0616 20.9429 32.7667 16.6159 34.0918 19.512C33.9379 20.3138 33.7859 21.1186 33.6311 21.9209C32.306 19.0239 29.6025 23.3523 28.2754 20.4553C28.4297 19.651 28.5828 18.8479 28.7345 18.0459Z" fill="#9B9B9B"/>
<path d="M5.85645 131.952C6.21242 131.887 6.53447 131.7 6.76638 131.422C6.99829 131.144 7.12534 130.793 7.12534 130.431C7.12534 130.069 6.99829 129.719 6.76638 129.441C6.53447 129.163 6.21242 128.976 5.85645 128.911" fill="black"/>
<path d="M149.879 14.4903C148.719 14.4903 147.775 13.3599 147.775 11.9704C147.775 10.581 148.719 9.45068 149.879 9.45068C151.038 9.45068 151.982 10.581 151.982 11.9705C151.982 13.3599 151.038 14.4903 149.879 14.4903ZM149.879 10.4502C149.51 10.4866 149.171 10.6664 148.933 10.9507C148.696 11.235 148.58 11.6012 148.61 11.9705C148.576 12.1564 148.584 12.3474 148.632 12.5301C148.68 12.7127 148.768 12.8826 148.889 13.0276C149.01 13.1726 149.161 13.2892 149.332 13.3693C149.503 13.4493 149.69 13.4908 149.879 13.4908C150.067 13.4908 150.254 13.4493 150.425 13.3693C150.596 13.2892 150.747 13.1726 150.868 13.0276C150.989 12.8826 151.077 12.7127 151.125 12.5301C151.173 12.3474 151.181 12.1564 151.147 11.9705C151.177 11.6012 151.061 11.235 150.824 10.9507C150.586 10.6664 150.247 10.4867 149.879 10.4502Z" fill="black"/>
<path d="M27.4488 109.957C26.2891 109.957 25.3457 108.827 25.3457 107.438C25.3457 106.048 26.2891 104.918 27.4488 104.918C28.6085 104.918 29.5519 106.048 29.5519 107.438C29.5519 108.827 28.6085 109.957 27.4488 109.957ZM27.4488 105.917C27.0928 105.982 26.7708 106.169 26.5389 106.447C26.307 106.725 26.1799 107.076 26.1799 107.438C26.1799 107.8 26.307 108.15 26.5389 108.428C26.7708 108.706 27.0928 108.893 27.4488 108.958C27.8048 108.893 28.1268 108.706 28.3588 108.428C28.5907 108.15 28.7177 107.8 28.7177 107.438C28.7177 107.076 28.5907 106.725 28.3588 106.447C28.1268 106.169 27.8048 105.982 27.4488 105.917Z" fill="black"/>
</g>
<defs>
<clipPath id="clip0_5200_9660">
<rect width="178.704" height="183" fill="white"/>
</clipPath>
</defs>
</svg>
