<svg width="18" height="18" viewBox="0 0 18 18" fill="none" xmlns="http://www.w3.org/2000/svg">
<circle cx="8.335" cy="9.335" r="8.335" fill="#2E2E2E"/>
<path d="M11.8242 4.90942C11.8242 4.60206 11.5727 4.35059 11.2653 4.35059H5.60996C5.30261 4.35059 5.05113 4.60206 5.05113 4.90942C5.05113 5.21678 5.30261 5.46825 5.60996 5.46825H7.23058C8.04088 5.47384 8.75619 5.98796 9.01325 6.75356H5.60996C5.30261 6.75356 5.05113 7.00504 5.05113 7.3124C5.05113 7.61975 5.30261 7.87123 5.60996 7.87123H9.01325C8.92384 8.16182 8.76178 8.43006 8.54942 8.64801C8.20295 9.00566 7.72794 9.20684 7.23058 9.21243H5.60996C5.31378 9.20125 5.06231 9.43596 5.05113 9.73214C5.04554 9.88861 5.10701 10.0451 5.22437 10.1513L9.27032 13.9737C9.49385 14.186 9.8515 14.1749 10.0583 13.9457C10.265 13.7334 10.2594 13.3925 10.0471 13.1857C10.0415 13.1801 10.0359 13.1801 10.0359 13.1745L7.01263 10.3301H7.22499C8.01853 10.3245 8.77854 10.006 9.33738 9.44155C9.76768 9.01684 10.0583 8.46918 10.1589 7.87123H11.2653C11.5727 7.87123 11.8242 7.61975 11.8242 7.3124C11.8242 7.00504 11.5727 6.75356 11.2653 6.75356H10.1589C10.0806 6.27856 9.86827 5.83149 9.54973 5.46825H11.2598C11.5727 5.46825 11.8242 5.21678 11.8242 4.90942Z" fill="white"/>
</svg>
